{"asset":{"version":"2.0","generator":"VECTARY"},"nodes":[{"translation":[0,-0.25397042527095515,0.2603900575338792],"scale":[0.09478539917064377,0.09478539917064377,0.09478539917064377],"rotation":[0,0,0,1],"name":"mesh_id7","mesh":0},{"translation":[0,-0.25397042527095515,0.2603900575338792],"scale":[0.009478539917064379,0.009478539917064379,0.009478539917064379],"rotation":[0,0,0,1],"name":"mesh_id10","mesh":1}],"materials":[{"pbrMetallicRoughness":{"baseColorFactor":[1,1,1,1],"baseColorTexture":{"index":0,"extensions":{"KHR_texture_transform":{"offset":[0,0],"scale":[1,1],"rotation":0}},"texCoord":0},"metallicRoughnessTexture":{"index":1,"extensions":{"KHR_texture_transform":{"offset":[0,0],"scale":[1,1],"rotation":0}},"texCoord":0},"metallicFactor":0.9999999999999994,"roughnessFactor":1},"name":"52","emissiveFactor":[0,0,0],"extensions":{},"alphaMode":"OPAQUE","doubleSided":true},{"pbrMetallicRoughness":{"baseColorFactor":[1,1,1,1],"baseColorTexture":{"index":2,"extensions":{"KHR_texture_transform":{"offset":[0,0],"scale":[1,1],"rotation":0}},"texCoord":0},"metallicRoughnessTexture":{"index":3,"extensions":{"KHR_texture_transform":{"offset":[0,0],"scale":[1,1],"rotation":0}},"texCoord":0},"metallicFactor":0.9999999999999994,"roughnessFactor":1},"name":"53","emissiveFactor":[0,0,0],"extensions":{},"alphaMode":"OPAQUE","doubleSided":true}],"textures":[{"sampler":0,"source":0},{"sampler":0,"source":1},{"sampler":0,"source":2},{"sampler":0,"source":3}],"images":[{"uri":"Sand_Texture_diffuse.jpg","mimeType":"image/jpeg"},{"uri":"convertedMetallnes&Sand_Texture_diffuse.jpg","mimeType":"image/jpeg"},{"uri":"Sand_Texture_diffuse_1.jpg","mimeType":"image/jpeg"},{"uri":"Sand_Texture_diffuse&Sand_Texture_diffuse.jpg","mimeType":"image/jpeg"}],"samplers":[{"wrapS":10497,"wrapT":10497}],"meshes":[{"primitives":[{"mode":4,"attributes":{"POSITION":1,"NORMAL":2,"TEXCOORD_0":3},"material":0,"indices":0}]},{"primitives":[{"mode":4,"attributes":{"POSITION":5,"NORMAL":6,"TEXCOORD_0":7},"material":1,"indices":4}]}],"accessors":[{"bufferView":0,"byteOffset":0,"componentType":5125,"count":43818,"type":"SCALAR"},{"bufferView":1,"byteOffset":0,"componentType":5126,"count":10685,"max":[17.16407012939453,53.80263900756836,27.471588134765625],"min":[-17.16407012939453,-0.2141212821006775,-27.471588134765625],"type":"VEC3"},{"bufferView":2,"byteOffset":0,"componentType":5126,"count":10685,"type":"VEC3"},{"bufferView":3,"byteOffset":0,"componentType":5126,"count":10685,"type":"VEC2"},{"bufferView":4,"byteOffset":0,"componentType":5125,"count":11922,"type":"SCALAR"},{"bufferView":5,"byteOffset":0,"componentType":5126,"count":2586,"max":[14.795735359191895,34.317596435546875,24.427764892578125],"min":[-14.795735359191895,13.49776840209961,-8.656122207641602],"type":"VEC3"},{"bufferView":6,"byteOffset":0,"componentType":5126,"count":2586,"type":"VEC3"},{"bufferView":7,"byteOffset":0,"componentType":5126,"count":2586,"type":"VEC2"}],"bufferViews":[{"buffer":0,"byteOffset":0,"byteLength":175272,"target":34963},{"buffer":0,"byteOffset":175272,"byteLength":128220,"target":34962},{"buffer":0,"byteOffset":303492,"byteLength":128220,"target":34962},{"buffer":0,"byteOffset":431712,"byteLength":85480,"target":34962},{"buffer":0,"byteOffset":517192,"byteLength":47688,"target":34963},{"buffer":0,"byteOffset":564880,"byteLength":31032,"target":34962},{"buffer":0,"byteOffset":595912,"byteLength":31032,"target":34962},{"buffer":0,"byteOffset":626944,"byteLength":20688,"target":34962}],"scene":0,"scenes":[{"nodes":[0,1],"name":"house"}],"extensionsUsed":["KHR_texture_transform"],"buffers":[{"byteLength":647632,"uri":"house.bin"}]}